<?xml version="1.0" encoding="UTF-8"?>
<svg width="752pt" height="752pt" version="1.1" viewBox="0 0 752 752" xmlns="http://www.w3.org/2000/svg">
 <defs>
  <clipPath id="a">
   <path d="m173 139.21h407v473.58h-407z"/>
  </clipPath>
 </defs>
 <g clip-path="url(#a)">
  <path d="m515.12 484.53c-14.801 0-28.613 4.9336-39.465 13.812l-125.3-86.824c4.9336-10.852 6.9062-22.691 6.9062-35.52 0-12.824-2.9609-24.664-6.9062-35.52l125.3-86.824c10.852 8.8789 24.664 13.812 39.465 13.812 35.52 0 64.129-28.613 64.129-64.129s-29.598-64.129-64.129-64.129-64.129 28.613-64.129 64.129c0 6.9062 0.98828 12.824 2.9609 18.746l-125.3 86.824c-16.773-15.785-38.477-24.664-63.145-24.664-50.316 0-91.758 41.438-91.758 91.758 0 50.316 41.438 91.758 91.758 91.758 24.664 0 46.371-9.8672 63.145-24.664l125.3 86.824c-1.9727 5.918-2.9609 12.824-2.9609 18.746 0 35.52 28.613 64.129 64.129 64.129 35.52 0 64.129-28.613 64.129-64.129 0-35.527-29.598-64.137-64.129-64.137zm-282.18-132.21c-10.852 10.852-23.68 14.801-29.598 9.8672-4.9336-4.9336-0.98828-18.746 9.8672-29.598 10.852-10.852 23.68-14.801 29.598-9.8672 5.918 4.9297 0.98438 18.742-9.8672 29.598z"/>
 </g>
</svg>
